<?xml version="1.0" encoding="utf-8"?>
<svg viewBox="0 0 2048 2048" width="2048" height="2048" xmlns="http://www.w3.org/2000/svg">
  <path d="M 1024 1251.427 C 1024 1210.135 1021.097 1172.231 1015.29 1137.714 C 1009.484 1103.196 999.967 1069.969 986.741 1038.033 C 973.515 1006.096 953.998 980.934 928.191 962.547 C 902.383 944.159 871.092 934.965 834.317 934.965 C 830.445 937.546 820.768 943.352 805.283 952.385 C 789.799 961.417 777.702 968.353 768.992 973.192 C 760.282 978.031 748.83 983.676 734.636 990.128 C 720.442 996.58 706.57 1001.257 693.022 1004.161 C 679.473 1007.064 665.924 1008.516 652.375 1008.516 C 638.826 1008.516 625.277 1007.064 611.729 1004.161 C 598.18 1001.257 584.308 996.58 570.114 990.128 C 555.92 983.676 544.468 978.031 535.758 973.192 C 527.048 968.353 514.951 961.417 499.467 952.385 C 483.982 943.352 474.305 937.546 470.434 934.965 C 433.658 934.965 402.367 944.159 376.56 962.547 C 350.752 980.934 331.236 1006.096 318.009 1038.033 C 304.783 1069.969 295.267 1103.196 289.46 1137.714 C 283.653 1172.231 280.75 1210.135 280.75 1251.427 C 280.75 1292.719 292.686 1327.074 316.558 1354.495 C 340.429 1381.915 369.785 1395.625 404.625 1395.625 L 900.125 1395.625 C 934.965 1395.625 964.321 1381.915 988.193 1354.495 C 1012.064 1327.074 1024 1292.719 1024 1251.427 Z M 872.06 748.185 C 872.06 687.537 850.607 635.762 807.703 592.857 C 764.798 549.952 713.022 528.5 652.375 528.5 C 591.728 528.5 539.952 549.952 497.047 592.857 C 454.143 635.762 432.69 687.537 432.69 748.185 C 432.69 808.832 454.143 860.608 497.047 903.512 C 539.952 946.417 591.728 967.869 652.375 967.869 C 713.022 967.869 764.798 946.417 807.703 903.512 C 850.607 860.608 872.06 808.832 872.06 748.185 Z M 1767.25 1240.781 L 1767.25 1178.844 C 1767.25 1169.811 1764.347 1162.392 1758.54 1156.585 C 1752.734 1150.778 1745.314 1147.875 1736.281 1147.875 L 1178.844 1147.875 C 1169.811 1147.875 1162.392 1150.778 1156.585 1156.585 C 1150.778 1162.392 1147.875 1169.811 1147.875 1178.844 L 1147.875 1240.781 C 1147.875 1249.814 1150.778 1257.234 1156.585 1263.04 C 1162.392 1268.847 1169.811 1271.75 1178.844 1271.75 L 1736.281 1271.75 C 1745.314 1271.75 1752.734 1268.847 1758.54 1263.04 C 1764.347 1257.234 1767.25 1249.814 1767.25 1240.781 Z M 1767.25 989.16 L 1767.25 934.965 C 1767.25 925.287 1763.863 917.061 1757.089 910.287 C 1750.314 903.512 1742.088 900.125 1732.41 900.125 L 1182.715 900.125 C 1173.037 900.125 1164.811 903.512 1158.037 910.287 C 1151.262 917.061 1147.875 925.287 1147.875 934.965 L 1147.875 989.16 C 1147.875 998.838 1151.262 1007.064 1158.037 1013.839 C 1164.811 1020.613 1173.037 1024 1182.715 1024 L 1732.41 1024 C 1742.088 1024 1750.314 1020.613 1757.089 1013.839 C 1763.863 1007.064 1767.25 998.838 1767.25 989.16 Z M 1767.25 745.281 L 1767.25 683.344 C 1767.25 674.311 1764.347 666.892 1758.54 661.085 C 1752.734 655.278 1745.314 652.375 1736.281 652.375 L 1178.844 652.375 C 1169.811 652.375 1162.392 655.278 1156.585 661.085 C 1150.778 666.892 1147.875 674.311 1147.875 683.344 L 1147.875 745.281 C 1147.875 754.314 1150.778 761.733 1156.585 767.54 C 1162.392 773.347 1169.811 776.25 1178.844 776.25 L 1736.281 776.25 C 1745.314 776.25 1752.734 773.347 1758.54 767.54 C 1764.347 761.733 1767.25 754.314 1767.25 745.281 Z M 2015 435.594 L 2015 1612.406 C 2015 1654.989 1999.839 1691.441 1969.515 1721.765 C 1939.191 1752.089 1902.739 1767.25 1860.156 1767.25 L 1519.5 1767.25 L 1519.5 1674.344 C 1519.5 1665.311 1516.597 1657.892 1510.79 1652.085 C 1504.984 1646.279 1497.564 1643.375 1488.531 1643.375 L 1426.594 1643.375 C 1417.561 1643.375 1410.142 1646.279 1404.335 1652.085 C 1398.528 1657.892 1395.625 1665.311 1395.625 1674.344 L 1395.625 1767.25 L 652.375 1767.25 L 652.375 1674.344 C 652.375 1665.311 649.472 1657.892 643.665 1652.085 C 637.858 1646.279 630.439 1643.375 621.406 1643.375 L 559.469 1643.375 C 550.436 1643.375 543.017 1646.279 537.21 1652.085 C 531.403 1657.892 528.5 1665.311 528.5 1674.344 L 528.5 1767.25 L 187.844 1767.25 C 145.262 1767.25 108.809 1752.089 78.485 1721.765 C 48.162 1691.441 33 1654.989 33 1612.406 L 33 435.594 C 33 393.012 48.162 356.559 78.485 326.235 C 108.809 295.912 145.262 280.75 187.844 280.75 L 1860.156 280.75 C 1902.739 280.75 1939.191 295.912 1969.515 326.235 C 1999.839 356.559 2015 393.012 2015 435.594 Z" style="fill: rgb(122, 231, 124); stroke-width: 50; stroke: rgb(0, 0, 0);" transform="matrix(0.9999999999999999, 0, 0, 0.9999999999999999, 4.547473508864641e-13, 0)"/>
</svg>